<?xml version="1.0" encoding="utf-8"?>
<!-- Generator: Adobe Illustrator 24.3.0, SVG Export Plug-In . SVG Version: 6.00 Build 0)  -->
<svg version="1.1" xmlns="http://www.w3.org/2000/svg" xmlns:xlink="http://www.w3.org/1999/xlink" x="0px" y="0px"
	 viewBox="0 0 3000 3000" style="enable-background:new 0 0 3000 3000;" xml:space="preserve">
<style type="text/css">
	.st0{fill:#FFCE00;}
	.st1{fill:#008CFF;}
</style>
<g id="Layer_2">
	<rect width="3000" height="3000"/>
</g>
<g id="Layer_1">
	<path class="st0" d="M1836.77,1206.66h-61.47c-2.77-22.25-17.84-124.07-107.94-194.91c-59.25-46.58-121.62-56.7-149.68-59.47
		c-0.1-15.21-0.2-30.41-0.29-45.62c-0.01-0.27-0.01-0.56-0.01-0.83c23.85,1.37,47.51,5.33,70.58,11.69
		c0.08,0.02,0.17,0.04,0.26,0.07c0.21,0.06,0.47,0.13,0.78,0.21c0.12,0.03,0.24,0.07,0.37,0.11c0.24,0.07,0.51,0.14,0.8,0.22
		c0.26,0.08,0.56,0.16,0.87,0.24c0.2,0.07,0.4,0.13,0.61,0.19c0.15,0.05,0.3,0.09,0.46,0.14c33.39,9.63,65.49,24.32,95.05,43.49
		c0.15,0.1,0.3,0.2,0.44,0.3c0.5,0.31,0.98,0.64,1.47,0.97c15.3,10.29,35.01,25.28,55.13,45.79c0.51,0.52,1.01,1.04,1.51,1.56
		c0.05,0.04,0.09,0.09,0.13,0.14c3.31,3.41,6.61,6.97,9.91,10.69c0.09,0.1,0.18,0.2,0.26,0.3c6.96,7.84,13.86,16.37,20.53,25.61
		c0.1,0.13,0.19,0.26,0.28,0.39c27.17,38.14,41.44,77.62,45.55,89.97c0.07,0.19,0.14,0.4,0.19,0.59c0.13,0.38,0.23,0.73,0.34,1.04
		c0.05,0.16,0.1,0.3,0.15,0.46c0.15,0.45,0.26,0.83,0.35,1.11c0.51,1.62,1,3.24,1.47,4.84c0.5,1.7,0.97,3.37,1.44,5.05
		c0.33,1.2,0.66,2.4,0.98,3.59c0.01,0.04,0.02,0.07,0.03,0.11c0.62,2.34,1.21,4.65,1.76,6.94c0.27,1.16,0.55,2.32,0.82,3.46
		c2.91,12.63,4.83,24.36,6.11,34.88c0.12,0.96,0.22,1.9,0.33,2.84C1836.52,1204.12,1836.64,1205.41,1836.77,1206.66z"/>
	<path class="st0" d="M1371.75,1606.21c1.02,7.39,1.88,56.96,1.75,61.52c18.41,0.08,36.07-0.16,54.47-0.07
		c-0.29-12.97-0.58-68.91-0.87-81.88c-0.16-4.89-0.73-12.21-2.81-20.8c-5.92-24.46-19.5-40.65-27.55-50.04
		c-8.86-10.33-16.92-16.95-27.55-25.67c-12.16-9.99-18.28-13.4-31.67-24.55c-9.68-8.06-17.11-15.12-21.74-19.68
		c-26.3-24.47-42.66-48.78-52.47-65.97c-18.09-31.68-25.61-59.59-31.48-81.96c-6.2-23.65-9.32-44.03-10.99-58.97
		c-18.74,0.25-37.48,0.5-56.22,0.75c0.36,49.03,10.5,87.56,18.99,112.19c11.09,32.19,30.88,89.64,81.21,131.93
		c24.81,20.85,47.64,44.06,73.21,63.97c5.43,4.23,17.5,13.45,25.24,29.49C1369.29,1588.96,1371.26,1602.61,1371.75,1606.21z"/>
	<path class="st0" d="M1733.58,1485.02c12.58-12.42,29.53-31.03,46.98-56.97c16.68-25.25,38.08-64.78,48.98-116.94
		c5.67-27.16,7.23-51.66,7-71.96c-20.03,0.04-40.06,0.08-60.1,0.12c-1,43.97-11.41,77.65-19.49,98.2
		c-6.72,17.1-26.07,64.81-70.84,104.95c-18.87,16.92-33.12,24.3-64.97,54.85c-17.91,17.18-28.26,29.09-35.98,46.23
		c-8.68,19.24-10.69,37.61-11.49,45.48c-1.47,14.37-1.88,69.8-0.84,78.69c18.41-0.25,40.16,0.25,58.57,0
		c-1.31-8.06-4.61-65.61,0.5-80.69c4.96-14.65,13.37-23.75,23.74-34.73c13.21-13.99,20.38-17.39,40.23-33.48
		C1695.84,1518.75,1715.82,1502.55,1733.58,1485.02z"/>
	<path class="st0" d="M1549.67,1289.86c-11.97,14.27-22.93,25.04-30.73,32.23c-0.25,100.83-0.77,244.63-1.02,345.45
		c9.12-0.12,18.62,0.12,27.74,0c0.19-96.64,0.27-236.63,0.46-333.27c5.9-3.31,41.04-29.67,55.54-76.15
		c2.56-8.22,7.74-46.48-16.49-80.46c-22.22-31.14-64.07-52.4-107.95-41.98c-42.88,10.19-70.64,46.51-76.96,82.46
		c-6.84,38.87,12.73,69.64,17.87,77.71c12.61,19.82,28.34,31.49,37.86,37.48c0.25,96.7-2.77,237.54-2.52,334.25
		c8.87,0.25,21.11-0.25,29.99,0c0.62-100.45,1.14-244.29,1.77-344.74c-10.3-7.5-25.4-20.23-38.98-39.73
		c-10.2-14.64-17.88-25.68-19.49-41.98c-3.33-33.7,22.48-57.85,23.99-59.22c2.78-2.52,27.68-24.33,62.22-17.99
		c28.06,5.15,48.46,26.31,56.22,49.48c0.92,2.76,8.94,27.88-2.25,52.47C1563.56,1273.23,1558.89,1278.87,1549.67,1289.86z"/>
	<path class="st0" d="M1619.76,1692.83h-241.38c-10.14,0-18.37,8.22-18.37,18.37v0c0,10.14,8.22,18.37,18.37,18.37h241.38
		c10.14,0,18.37-8.22,18.37-18.37v0C1638.12,1701.05,1629.9,1692.83,1619.76,1692.83z"/>
	<path class="st0" d="M1616.01,1745.31h-227.14c-8.49,0-15.37,6.88-15.37,15.37s6.88,15.37,15.37,15.37h227.14
		c8.49,0,15.37-6.88,15.37-15.37S1624.5,1745.31,1616.01,1745.31z"/>
	<path class="st0" d="M1581.15,1797.78h-162.42c-11.46,0-21.82,4.65-29.33,12.15c-7.5,7.51-12.15,17.88-12.15,29.33
		c0,22.91,18.57,41.48,41.48,41.48h12.67c5.15,36.35,37.73,62.61,72.54,59.84c31.11-2.47,57.23-27.59,61.62-59.84h15.6
		c11.46,0,21.83-4.65,29.33-12.15c7.5-7.51,12.15-17.88,12.15-29.34C1622.63,1816.35,1604.06,1797.78,1581.15,1797.78z
		 M1586.97,1848.07c-2.89,2.89-6.9,4.68-11.31,4.68h-152.92c-8.83,0-16-7.16-16-16c0-4.42,1.79-8.41,4.68-11.3
		c2.9-2.89,6.9-4.68,11.31-4.68h152.92c8.83,0,16,7.16,16,15.99C1591.65,1841.18,1589.86,1845.18,1586.97,1848.07z"/>
	<path class="st0" d="M1484.69,952.28c-24.27,2.88-107.66,15.79-177.15,87.2c-64.2,65.98-77.6,141.86-80.96,167.18h-60.23
		c1.44-13.26,3.99-29.4,8.6-47.43c0.31-1.22,0.63-2.47,0.97-3.74c0.04-0.15,0.08-0.29,0.13-0.45c0.19-0.73,0.39-1.47,0.6-2.21
		c0.58-2.14,1.22-4.35,1.9-6.63c0.25-0.86,0.52-1.73,0.79-2.6c0.26-0.87,0.54-1.74,0.82-2.61c0.42-1.32,0.84-2.64,1.28-3.97
		c0.44-1.33,0.9-2.67,1.36-4.01h-0.01c3.92-11.37,8.94-23.97,15.45-37.29h0.01c0.38-0.78,0.77-1.57,1.15-2.35
		c0.39-0.79,0.8-1.59,1.2-2.38c0.43-0.86,0.88-1.72,1.33-2.58c0.87-1.67,1.75-3.32,2.63-4.95c0.44-0.82,0.89-1.64,1.34-2.45
		c27.15-49.25,62.41-83.35,91.98-105.8c0.22-0.18,0.44-0.35,0.66-0.51c0.73-0.56,1.45-1.1,2.17-1.64
		c15.17-11.27,28.69-19.44,38.62-24.99c0.01,0,0.01-0.01,0.02-0.01c0.02-0.01,0.03-0.02,0.05-0.03c0.46-0.24,0.92-0.51,1.36-0.74
		c-0.05,0.02-0.11,0.04-0.16,0.06c9.51-5.47,19.17-10.37,28.96-14.74c0.13-0.06,0.25-0.12,0.38-0.17c0.01,0,0.02-0.01,0.03-0.01
		c36.89-16.4,75.5-25.08,114.11-26.8c0,0.33,0.01,0.66,0.01,0.99C1484.3,921.84,1484.5,937.06,1484.69,952.28z"/>
	<path class="st0" d="M1339.35,948.07c-75.75,44.01-123.54,112.04-141.09,147.64c1.62-3.31,3.3-6.65,5.09-9.99
		C1245.52,1006.22,1309.07,964.97,1339.35,948.07z"/>
	<path class="st0" d="M1745.85,1010.94c21.13,21.84,42.54,49.79,59.57,84.77C1795.14,1075.37,1776.53,1043.1,1745.85,1010.94z"/>
	<path class="st0" d="M1297.89,975.2c-30.85,23.62-65.54,57.99-91.98,105.8C1233.06,1031.75,1268.31,997.64,1297.89,975.2z"/>
	<path class="st0" d="M1484.09,905.62c0,0.33,0.01,0.66,0.01,0.99c-33.98,1.59-73.15,8.49-114.12,25.81
		C1406.86,916.02,1445.48,907.35,1484.09,905.62z"/>
	<path class="st0" d="M1517.38,905.83c23.85,1.37,47.51,5.33,70.58,11.69c-13.17-3.5-38.14-9.26-70.57-10.86
		C1517.38,906.39,1517.38,906.11,1517.38,905.83z"/>
	<path class="st0" d="M1755.75,1021.63c-62.24-69.32-143.6-96.95-163.63-102.92c33.39,9.63,65.49,24.32,95.05,43.49
		c0.15,0.1,0.3,0.2,0.44,0.3c0.5,0.31,0.98,0.64,1.47,0.97c15.3,10.29,35.01,25.28,55.13,45.79c0.51,0.52,1.01,1.04,1.51,1.56
		c0.05,0.04,0.09,0.09,0.13,0.14C1749.15,1014.35,1752.45,1017.91,1755.75,1021.63z"/>
</g>
<g id="Layer_3">
	<path class="st1" d="M2078.21,1531.6c-0.08-0.1-0.15-0.2-0.22-0.31c-34.22-52.38-68.44-104.76-102.65-157.13
		c-0.78-1.19-0.87-2.69-0.24-3.96c6.42-13.03,14.16-33.22,15.23-58.43c0.85-19.94-2.8-35.56-8.6-55.44
		c-6.87-23.56-17.43-55.31-33.74-92.98h-85.67c13.75,43.02,32.42,125.1,9.11,222.03c-39.36,163.7-168.59,245.42-199.14,263.41
		c-1.22,0.72-1.97,2.03-1.97,3.44c-0.24,80.89-0.47,161.78-0.71,242.67c0.01,0.79,0.14,2.96,1.67,5.02
		c1.74,2.33,4.19,3.05,5.28,3.27c0.27,0.05,0.53,0.08,0.8,0.08c14.14-0.08,28.29-0.16,42.43-0.24c1.69-0.01,5.38-0.27,9.08-2.63
		c3.88-2.48,5.6-5.89,6.45-7.65c2.71-5.58,2.43-10.89,2.39-12.31c-0.45-15.12,12.84-34.23,13.98-35.85
		c12.68-17.92,32.29-23.82,38-25.45c6.95-1.99,16.32-3.54,47.32,1.08c41.99,6.26,43.61,11.92,67.75,12.91
		c17.11,0.7,38.76,1.29,58.79-12.19c5.52-3.71,19.11-13.14,24.74-30.47c4.89-15.08,1.52-29.28,1.08-31.07
		c-2.74-10.99-7.57-15.07-9.56-29.16c-1.06-7.5-1.59-11.26-0.24-15.3c3.94-11.78,19.73-23.03,21.99-24.62
		c1.73-1.22,3.46-2.32,4.3-4.54c2.31-6.08-4.53-13.85-8.13-17.92c-2.11-2.4-5.29-5.57-9.79-8.69c-2.91-2.02-1.99-6.53,1.48-7.24
		c0.04-0.01,0.09-0.02,0.13-0.03c15.14-3.08,18.67-4.31,21.15-7.53c1.89-2.44,2.3-4.91,2.87-8.25c0.66-3.92,0.29-6.75-2.15-18.28
		c0,0-1.14-5.41-3.23-17.39c-0.95-5.44-1.31-7.93,0-10.58c2.04-4.12,6.71-5.69,8.96-6.27c14.81-3.27,29.61-6.54,44.42-9.81
		c0.14-0.03,0.28-0.05,0.42-0.07c2.41-0.27,9.57-1.44,15.38-7.51c6.69-6.98,6.94-15.61,6.81-18.82
		C2083.87,1539.27,2079.86,1533.65,2078.21,1531.6z"/>
	<path class="st1" d="M1328.5,1648.78c-30.55-17.98-159.78-99.71-199.14-263.41c-23.31-96.93-4.64-179.01,9.11-222.03h-85.67
		c-16.3,37.66-26.86,69.42-33.74,92.98c-5.8,19.88-9.45,35.5-8.6,55.44c1.07,25.22,8.82,45.4,15.23,58.43
		c0.63,1.27,0.53,2.77-0.24,3.96c-34.22,52.38-68.44,104.76-102.65,157.13c-0.07,0.11-0.14,0.2-0.22,0.31
		c-1.64,2.05-5.66,7.67-5.98,15.81c-0.13,3.21,0.12,11.84,6.81,18.82c5.81,6.07,12.98,7.23,15.38,7.51
		c0.14,0.02,0.28,0.04,0.42,0.07c14.81,3.27,29.61,6.54,44.42,9.81c2.25,0.58,6.92,2.15,8.96,6.27c1.31,2.65,0.95,5.14,0,10.58
		c-2.08,11.98-3.23,17.39-3.23,17.39c-2.44,11.54-2.81,14.36-2.15,18.28c0.56,3.33,0.98,5.8,2.87,8.25
		c2.48,3.22,6.01,4.45,21.15,7.53c0.04,0.01,0.09,0.02,0.13,0.03c3.47,0.7,4.39,5.22,1.48,7.24c-4.5,3.12-7.68,6.29-9.79,8.69
		c-3.59,4.08-10.43,11.84-8.13,17.92c0.84,2.22,2.57,3.33,4.3,4.54c2.26,1.59,18.04,12.83,21.99,24.62
		c1.35,4.04,0.82,7.79-0.24,15.3c-1.99,14.09-6.82,18.17-9.56,29.16c-0.45,1.79-3.82,15.99,1.08,31.07
		c5.62,17.33,19.22,26.76,24.74,30.47c20.03,13.48,41.68,12.89,58.79,12.19c24.14-0.99,25.77-6.65,67.75-12.91
		c31-4.62,40.37-3.06,47.32-1.08c5.71,1.63,25.32,7.53,38,25.45c1.15,1.62,14.43,20.73,13.98,35.85c-0.04,1.42-0.32,6.73,2.39,12.31
		c0.86,1.76,2.57,5.17,6.45,7.65c3.7,2.36,7.39,2.62,9.08,2.63l42.43,0.24c0.27,0,0.54-0.02,0.8-0.08c1.09-0.22,3.54-0.93,5.28-3.27
		c1.54-2.06,1.66-4.23,1.67-5.02c-0.24-80.89-0.47-161.78-0.71-242.67C1330.47,1650.81,1329.72,1649.5,1328.5,1648.78z"/>
	<path class="st0" d="M1712.34,1144.94c-31.87-88.43-114.98-148.17-207.65-149.68c-78.98-1.29-152.09,39.94-193.51,105.69
		l-29.88-13.42l4.63,45.48l4.63,45.48l37.07-26.75l37.07-26.75l-25.74-11.56c38.04-58.03,104.26-92.99,173.96-88.93
		c79.31,4.62,148.83,58.93,173.91,136.43c7.1,8.2,18.75,8.15,24.24,2.25C1715.13,1158.82,1715.77,1151.34,1712.34,1144.94z"/>
	<path class="st0" d="M1405.43,1392.66l-12.34-44.02l-21.83,22.34c-20.84-20.29-44.94-51.15-57.72-93.85
		c-9.14-30.57-9.68-57.81-8.25-77.21c-0.39-0.8-3.83-7.5-11.49-9c-6.16-1.2-12.61,1.44-16.49,6.75
		c-2.16,21.61-5.27,81.93,31.36,142.8c13.11,21.78,28.26,38.57,42.32,51.26l-21.8,22.31l44.29,11.32l44.29,11.32L1405.43,1392.66z"
		/>
	<path class="st0" d="M1754.45,1252.83l-22.86-39.59l-22.86-39.59l-22.86,39.59l-22.86,39.59h31.3
		c-1.74,11.48-4.61,23.87-9.21,36.78c-22.27,62.55-69.38,95.08-85.96,105.45c-0.39,0.73-4.31,8.32-1,13.99
		c3.6,6.16,14.89,8.64,24.99,2c17.18-10.61,51.54-35.11,75.96-79.96c15.22-27.95,21.93-55.28,24.52-78.26L1754.45,1252.83z"/>
</g>
<g id="Layer_9">
	<g>
		<path class="st1" d="M571.35,2102.82c0,3.71-0.47,7.04-1.41,10c-0.94,2.96-2.18,5.57-3.72,7.83c-1.54,2.26-3.35,4.19-5.42,5.78
			c-2.07,1.59-4.21,2.89-6.43,3.9c-2.21,1.01-4.46,1.76-6.75,2.24c-2.29,0.48-4.44,0.72-6.46,0.72h-72.41v-18.77h72.41
			c3.61,0,6.41-1.06,8.41-3.18c2-2.12,3-4.96,3-8.52c0-1.73-0.27-3.32-0.79-4.76c-0.53-1.44-1.29-2.7-2.27-3.75
			c-0.99-1.06-2.19-1.88-3.61-2.45c-1.42-0.58-3-0.87-4.73-0.87H498c-3.03,0-6.31-0.54-9.82-1.62c-3.51-1.08-6.78-2.83-9.78-5.23
			c-3.01-2.41-5.51-5.56-7.51-9.46c-2-3.9-3-8.66-3-14.29c0-5.63,1-10.38,3-14.26c2-3.87,4.5-7.03,7.51-9.46
			c3.01-2.43,6.27-4.19,9.78-5.27c3.51-1.08,6.79-1.62,9.82-1.62h63.9v18.77H498c-3.56,0-6.34,1.08-8.34,3.25c-2,2.17-3,5.03-3,8.59
			c0,3.61,1,6.46,3,8.56c2,2.09,4.78,3.14,8.34,3.14h43.17h0.14c2.02,0.05,4.16,0.33,6.43,0.83c2.26,0.51,4.51,1.29,6.75,2.35
			s4.37,2.39,6.39,4.01c2.02,1.61,3.81,3.55,5.38,5.81c1.56,2.26,2.8,4.86,3.72,7.8C570.89,2095.79,571.35,2099.11,571.35,2102.82z"
			/>
		<path class="st1" d="M652.5,2074.01h-32.78v59.27h-18.99v-59.27h-24.4v-18.77h24.4v-25.49h18.99v25.49h32.78V2074.01z"/>
		<path class="st1" d="M748.52,2081.08c0,2.6-0.46,5.4-1.37,8.41c-0.91,3.01-2.4,5.8-4.44,8.38c-2.05,2.58-4.72,4.73-8.01,6.46
			c-3.3,1.73-7.3,2.6-12.02,2.6h-33.86v-17.83h33.86c2.55,0,4.52-0.78,5.92-2.35c1.4-1.56,2.09-3.5,2.09-5.81
			c0-2.45-0.78-4.38-2.35-5.78c-1.56-1.4-3.45-2.09-5.67-2.09h-33.86c-2.55,0-4.52,0.78-5.92,2.35c-1.4,1.56-2.09,3.5-2.09,5.81
			v26.21c0,2.5,0.78,4.45,2.35,5.85c1.56,1.4,3.5,2.09,5.81,2.09h33.72v17.91h-33.86c-2.6,0-5.4-0.46-8.41-1.37
			c-3.01-0.91-5.8-2.39-8.38-4.44c-2.58-2.05-4.73-4.72-6.46-8.01c-1.73-3.3-2.6-7.3-2.6-12.02v-26.35c0-2.6,0.46-5.4,1.37-8.41
			c0.91-3.01,2.39-5.8,4.44-8.38c2.05-2.57,4.72-4.73,8.01-6.46c3.3-1.73,7.3-2.6,12.02-2.6h33.86c2.6,0,5.4,0.46,8.41,1.37
			c3.01,0.92,5.8,2.39,8.38,4.44c2.57,2.05,4.73,4.72,6.46,8.01C747.66,2072.36,748.52,2076.37,748.52,2081.08z"/>
		<path class="st1" d="M841.15,2107.44c0,2.6-0.46,5.4-1.37,8.41c-0.92,3.01-2.4,5.8-4.44,8.38c-2.05,2.58-4.72,4.73-8.01,6.46
			c-3.3,1.73-7.3,2.6-12.02,2.6h-33.86c-2.6,0-5.4-0.46-8.41-1.37c-3.01-0.91-5.8-2.39-8.38-4.44c-2.58-2.05-4.73-4.72-6.46-8.01
			c-1.73-3.3-2.6-7.3-2.6-12.02c0-2.6,0.46-5.42,1.37-8.45c0.91-3.03,2.39-5.84,4.44-8.41c2.05-2.57,4.72-4.73,8.01-6.46
			c3.3-1.73,7.3-2.6,12.02-2.6h33.86v17.91h-33.86c-2.55,0-4.52,0.78-5.92,2.35c-1.4,1.57-2.09,3.5-2.09,5.81
			c0,2.45,0.81,4.37,2.42,5.74c1.61,1.37,3.52,2.06,5.74,2.06h33.72c2.55,0,4.52-0.77,5.92-2.31c1.4-1.54,2.09-3.46,2.09-5.78
			v-26.21c0-2.45-0.76-4.4-2.27-5.85c-1.52-1.44-3.43-2.17-5.74-2.17h-41.23v-17.83h41.23c2.6,0,5.4,0.46,8.41,1.37
			c3.01,0.92,5.8,2.39,8.38,4.44c2.57,2.05,4.73,4.72,6.46,8.01s2.6,7.3,2.6,12.02V2107.44z"/>
		<path class="st1" d="M891.48,2133.28h-8.38c-2.7,0-5.57-0.46-8.63-1.37c-3.06-0.91-5.91-2.42-8.56-4.51
			c-2.65-2.09-4.84-4.81-6.57-8.16c-1.73-3.34-2.6-7.45-2.6-12.31v-84.69h18.77v84.69c0,2.31,0.72,4.15,2.17,5.52
			c1.44,1.37,3.25,2.06,5.41,2.06h8.38V2133.28z"/>
		<path class="st0" d="M1026.13,2133.28h-18.92v-61.66l-33.28,58.55c-0.82,1.49-1.96,2.62-3.43,3.39c-1.47,0.77-3.04,1.16-4.73,1.16
			c-1.64,0-3.17-0.39-4.58-1.16c-1.42-0.77-2.54-1.9-3.36-3.39l-33.43-58.55v61.66h-18.77v-95.52c0-2.17,0.64-4.09,1.91-5.78
			c1.27-1.68,2.95-2.82,5.02-3.39c1.01-0.24,2.02-0.32,3.03-0.25s1.99,0.29,2.92,0.65s1.79,0.87,2.56,1.52
			c0.77,0.65,1.42,1.43,1.95,2.35l42.74,74.29l42.74-74.29c1.11-1.83,2.64-3.13,4.58-3.9c1.95-0.77,3.98-0.89,6.1-0.36
			c2.02,0.58,3.68,1.71,4.98,3.39c1.3,1.69,1.95,3.61,1.95,5.78V2133.28z"/>
		<path class="st0" d="M1105.25,2133.28h-33.86c-2.7,0-5.57-0.46-8.63-1.37c-3.06-0.91-5.91-2.42-8.56-4.51
			c-2.65-2.09-4.84-4.81-6.57-8.16c-1.73-3.34-2.6-7.45-2.6-12.31v-51.69h18.77v51.69c0,2.46,0.65,4.33,1.95,5.63
			c1.3,1.3,3.22,1.95,5.78,1.95h33.72V2133.28z M1131.53,2140.79c0,3.22-0.41,6.12-1.23,8.7c-0.82,2.58-1.9,4.84-3.25,6.79
			c-1.35,1.95-2.91,3.61-4.69,4.98c-1.78,1.37-3.65,2.49-5.6,3.36s-3.91,1.5-5.88,1.91c-1.97,0.41-3.85,0.61-5.63,0.61h-33.86
			v-18.77h33.86c2.5,0,4.38-0.65,5.63-1.95c1.25-1.3,1.88-3.18,1.88-5.63v-85.55h18.77V2140.79z"/>
		<path class="st1" d="M1254.85,2110.54c0,2.31-0.4,4.79-1.19,7.44c-0.79,2.65-2.09,5.1-3.9,7.36c-1.8,2.26-4.15,4.15-7.04,5.67
			c-2.89,1.52-6.43,2.27-10.61,2.27h-71.26c-1.35,0-2.6-0.24-3.75-0.72c-1.15-0.48-2.15-1.14-3-1.99c-0.84-0.84-1.5-1.84-1.99-3
			c-0.48-1.15-0.72-2.41-0.72-3.75v-84.62c0-1.3,0.24-2.53,0.72-3.68c0.48-1.16,1.14-2.17,1.99-3.03c0.84-0.87,1.84-1.54,3-2.02
			c1.16-0.48,2.41-0.72,3.75-0.72h62.81c2.31,0,4.79,0.41,7.44,1.23c2.65,0.82,5.11,2.13,7.4,3.94c2.29,1.8,4.19,4.15,5.7,7.04
			s2.27,6.43,2.27,10.61v3.54c0,3.32-0.55,6.9-1.66,10.72c-1.11,3.83-2.89,7.45-5.34,10.87c2.12,1.3,4.1,2.86,5.96,4.69
			c1.85,1.83,3.48,3.95,4.87,6.35c1.4,2.41,2.5,5.13,3.32,8.16c0.82,3.03,1.23,6.38,1.23,10.04V2110.54z M1236.08,2106.93
			c0-2.45-0.39-4.66-1.15-6.61c-0.77-1.95-1.85-3.62-3.25-5.02c-1.4-1.4-3.08-2.47-5.05-3.21c-1.97-0.75-4.19-1.12-6.64-1.12h-42.31
			v-18.92h33.86c2.45,0,4.67-0.37,6.64-1.12c1.97-0.75,3.66-1.82,5.05-3.21c1.4-1.4,2.47-3.07,3.21-5.02
			c0.75-1.95,1.12-4.15,1.12-6.61v-3.54c0-2.7-1.3-4.04-3.9-4.04h-53.5v65.99h61.95c0.34,0,0.75-0.02,1.23-0.07
			c0.48-0.05,0.91-0.19,1.3-0.43c0.38-0.24,0.72-0.65,1.01-1.23c0.29-0.58,0.43-1.37,0.43-2.38V2106.93z"/>
		<path class="st1" d="M1354.41,2123.83c0,1.35-0.24,2.6-0.72,3.75c-0.48,1.16-1.14,2.16-1.99,3c-0.84,0.84-1.83,1.5-2.96,1.99
			c-1.13,0.48-2.35,0.72-3.65,0.72h-42.45c-2.31,0-4.78-0.26-7.4-0.79c-2.62-0.53-5.21-1.38-7.76-2.56
			c-2.55-1.18-5.02-2.67-7.4-4.48c-2.38-1.81-4.46-4-6.25-6.57c-1.78-2.57-3.21-5.55-4.3-8.92c-1.08-3.37-1.62-7.17-1.62-11.41
			v-43.32h18.77v43.32c0,2.46,0.42,4.66,1.26,6.61c0.84,1.95,1.99,3.62,3.43,5.02c1.44,1.4,3.14,2.47,5.09,3.21
			c1.95,0.75,4.05,1.12,6.32,1.12h32.85v-59.27h18.77V2123.83z"/>
		<path class="st1" d="M1447.47,2106.93c0,3.23-0.41,6.13-1.23,8.7c-0.82,2.58-1.9,4.84-3.25,6.79c-1.35,1.95-2.91,3.61-4.69,4.98
			c-1.78,1.37-3.65,2.49-5.6,3.36c-1.95,0.87-3.92,1.5-5.92,1.91c-2,0.41-3.89,0.61-5.67,0.61h-50.83v-18.77h50.68
			c2.55,0,4.48-0.65,5.78-1.95c1.3-1.3,1.95-3.18,1.95-5.63c-0.24-5-2.77-7.51-7.58-7.51h-29.1c-4.14,0-7.65-0.72-10.54-2.17
			c-2.89-1.44-5.23-3.25-7.04-5.42c-1.8-2.17-3.1-4.5-3.9-7c-0.79-2.5-1.19-4.84-1.19-7c0-4.19,0.75-7.71,2.24-10.58
			c1.49-2.86,3.37-5.19,5.63-6.97c2.26-1.78,4.72-3.07,7.36-3.86c2.65-0.79,5.13-1.19,7.44-1.19h46.13v18.77h-45.99
			c-0.96,0-1.72,0.11-2.27,0.33c-0.55,0.22-0.96,0.5-1.23,0.87c-0.27,0.36-0.42,0.75-0.47,1.16c-0.05,0.41-0.07,0.81-0.07,1.19
			c0.05,0.77,0.19,1.37,0.43,1.8c0.24,0.43,0.54,0.75,0.9,0.94c0.36,0.19,0.77,0.3,1.23,0.33c0.46,0.02,0.9,0.04,1.34,0.04h29.1
			c4.81,0,8.9,0.87,12.27,2.6c3.37,1.73,6.09,3.91,8.16,6.53c2.07,2.62,3.57,5.48,4.51,8.56S1447.47,2104.28,1447.47,2106.93z"/>
		<path class="st1" d="M1479.67,2039.21h-18.77v-16.97h18.77V2039.21z M1479.67,2133.28h-18.77v-78.05h18.77V2133.28z"/>
		<path class="st1" d="M1584.14,2133.28h-18.77v-43.32c0-2.46-0.42-4.66-1.26-6.61c-0.84-1.95-1.99-3.62-3.43-5.02
			c-1.44-1.4-3.14-2.47-5.09-3.21c-1.95-0.75-4.06-1.12-6.32-1.12h-32.85v59.27h-18.77v-68.73c0-1.3,0.24-2.51,0.72-3.65
			c0.48-1.13,1.16-2.12,2.02-2.96c0.87-0.84,1.88-1.5,3.03-1.99c1.16-0.48,2.38-0.72,3.68-0.72h42.31c2.36,0,4.85,0.26,7.47,0.79
			c2.62,0.53,5.22,1.38,7.8,2.56c2.57,1.18,5.03,2.67,7.36,4.48c2.33,1.81,4.4,4,6.21,6.57c1.8,2.58,3.24,5.55,4.3,8.92
			c1.06,3.37,1.59,7.17,1.59,11.41V2133.28z"/>
		<path class="st1" d="M1684.57,2081.08c0,2.6-0.46,5.4-1.37,8.41c-0.92,3.01-2.39,5.8-4.44,8.38c-2.05,2.58-4.72,4.73-8.01,6.46
			c-3.3,1.73-7.3,2.6-12.02,2.6h-33.86v-17.83h33.86c2.55,0,4.52-0.78,5.92-2.35c1.4-1.56,2.09-3.5,2.09-5.81
			c0-2.45-0.78-4.38-2.35-5.78c-1.56-1.4-3.45-2.09-5.67-2.09h-33.86c-2.55,0-4.52,0.78-5.92,2.35c-1.4,1.56-2.09,3.5-2.09,5.81
			v26.21c0,2.5,0.78,4.45,2.35,5.85c1.56,1.4,3.5,2.09,5.81,2.09h33.72v17.91h-33.86c-2.6,0-5.4-0.46-8.41-1.37
			c-3.01-0.91-5.8-2.39-8.38-4.44c-2.58-2.05-4.73-4.72-6.46-8.01c-1.73-3.3-2.6-7.3-2.6-12.02v-26.35c0-2.6,0.46-5.4,1.37-8.41
			c0.91-3.01,2.39-5.8,4.44-8.38c2.05-2.57,4.72-4.73,8.01-6.46c3.3-1.73,7.3-2.6,12.02-2.6h33.86c2.6,0,5.4,0.46,8.41,1.37
			c3.01,0.92,5.8,2.39,8.38,4.44c2.57,2.05,4.73,4.72,6.46,8.01C1683.7,2072.36,1684.57,2076.37,1684.57,2081.08z"/>
		<path class="st1" d="M1772.65,2106.93c0,3.23-0.41,6.13-1.23,8.7c-0.82,2.58-1.9,4.84-3.25,6.79c-1.35,1.95-2.91,3.61-4.69,4.98
			c-1.78,1.37-3.65,2.49-5.6,3.36c-1.95,0.87-3.92,1.5-5.92,1.91c-2,0.41-3.89,0.61-5.67,0.61h-50.83v-18.77h50.68
			c2.55,0,4.48-0.65,5.78-1.95s1.95-3.18,1.95-5.63c-0.24-5-2.77-7.51-7.58-7.51h-29.1c-4.14,0-7.65-0.72-10.54-2.17
			c-2.89-1.44-5.23-3.25-7.04-5.42s-3.1-4.5-3.9-7s-1.19-4.84-1.19-7c0-4.19,0.75-7.71,2.24-10.58c1.49-2.86,3.37-5.19,5.63-6.97
			c2.26-1.78,4.72-3.07,7.36-3.86c2.65-0.79,5.13-1.19,7.44-1.19h46.13v18.77h-45.99c-0.96,0-1.72,0.11-2.27,0.33
			c-0.55,0.22-0.96,0.5-1.23,0.87c-0.27,0.36-0.42,0.75-0.47,1.16c-0.05,0.41-0.07,0.81-0.07,1.19c0.05,0.77,0.19,1.37,0.43,1.8
			c0.24,0.43,0.54,0.75,0.9,0.94c0.36,0.19,0.77,0.3,1.23,0.33c0.46,0.02,0.9,0.04,1.33,0.04h29.1c4.81,0,8.9,0.87,12.27,2.6
			c3.37,1.73,6.09,3.91,8.16,6.53c2.07,2.62,3.57,5.48,4.51,8.56S1772.65,2104.28,1772.65,2106.93z"/>
		<path class="st1" d="M1861.24,2106.93c0,3.23-0.41,6.13-1.23,8.7c-0.82,2.58-1.9,4.84-3.25,6.79c-1.35,1.95-2.91,3.61-4.69,4.98
			c-1.78,1.37-3.65,2.49-5.6,3.36c-1.95,0.87-3.92,1.5-5.92,1.91c-2,0.41-3.89,0.61-5.67,0.61h-50.83v-18.77h50.68
			c2.55,0,4.48-0.65,5.78-1.95s1.95-3.18,1.95-5.63c-0.24-5-2.77-7.51-7.58-7.51h-29.1c-4.14,0-7.65-0.72-10.54-2.17
			c-2.89-1.44-5.23-3.25-7.04-5.42s-3.1-4.5-3.9-7s-1.19-4.84-1.19-7c0-4.19,0.75-7.71,2.24-10.58c1.49-2.86,3.37-5.19,5.63-6.97
			c2.26-1.78,4.72-3.07,7.36-3.86c2.65-0.79,5.13-1.19,7.44-1.19h46.13v18.77h-45.99c-0.96,0-1.72,0.11-2.27,0.33
			c-0.55,0.22-0.96,0.5-1.23,0.87c-0.27,0.36-0.42,0.75-0.47,1.16c-0.05,0.41-0.07,0.81-0.07,1.19c0.05,0.77,0.19,1.37,0.43,1.8
			c0.24,0.43,0.54,0.75,0.9,0.94c0.36,0.19,0.77,0.3,1.23,0.33c0.46,0.02,0.9,0.04,1.33,0.04h29.1c4.81,0,8.9,0.87,12.27,2.6
			c3.37,1.73,6.09,3.91,8.16,6.53c2.07,2.62,3.57,5.48,4.51,8.56S1861.24,2104.28,1861.24,2106.93z"/>
		<path class="st0" d="M1895.39,2133.28h-18.77v-103.53h18.77V2133.28z"/>
		<path class="st0" d="M2000.36,2106.93c0,3.23-0.41,6.13-1.23,8.7c-0.82,2.58-1.9,4.84-3.25,6.79c-1.35,1.95-2.91,3.61-4.69,4.98
			c-1.78,1.37-3.65,2.49-5.6,3.36c-1.95,0.87-3.92,1.5-5.92,1.91c-2,0.41-3.89,0.61-5.67,0.61h-33.86c-3.23,0-6.11-0.41-8.66-1.23
			c-2.55-0.82-4.8-1.91-6.75-3.29c-1.95-1.37-3.61-2.95-4.98-4.73c-1.37-1.78-2.49-3.65-3.36-5.6s-1.5-3.92-1.91-5.92
			c-0.41-2-0.61-3.86-0.61-5.6v-25.41c0-4.81,0.88-8.89,2.64-12.24c1.76-3.35,3.95-6.07,6.57-8.16c2.62-2.09,5.47-3.6,8.55-4.51
			c3.08-0.91,5.92-1.37,8.52-1.37h33.86v18.77h-33.72c-2.5,0-4.4,0.64-5.7,1.91c-1.3,1.28-1.95,3.14-1.95,5.6v25.27
			c0,2.55,0.64,4.48,1.91,5.78s3.14,1.95,5.6,1.95h33.86c2.55,0,4.45-0.65,5.7-1.95c1.25-1.3,1.88-3.18,1.88-5.63v-84.69h18.77
			V2106.93z"/>
		<path class="st0" d="M2102.23,2081.08c0,2.6-0.46,5.4-1.37,8.41c-0.92,3.01-2.39,5.8-4.44,8.38c-2.05,2.58-4.72,4.73-8.01,6.46
			c-3.3,1.73-7.3,2.6-12.02,2.6h-33.86v-17.83h33.86c2.55,0,4.52-0.78,5.92-2.35c1.4-1.56,2.09-3.5,2.09-5.81
			c0-2.45-0.78-4.38-2.35-5.78c-1.56-1.4-3.45-2.09-5.67-2.09h-33.86c-2.55,0-4.52,0.78-5.92,2.35c-1.4,1.56-2.09,3.5-2.09,5.81
			v26.21c0,2.5,0.78,4.45,2.35,5.85c1.56,1.4,3.5,2.09,5.81,2.09h33.72v17.91h-33.86c-2.6,0-5.4-0.46-8.41-1.37
			c-3.01-0.91-5.8-2.39-8.38-4.44c-2.58-2.05-4.73-4.72-6.46-8.01c-1.73-3.3-2.6-7.3-2.6-12.02v-26.35c0-2.6,0.46-5.4,1.37-8.41
			c0.91-3.01,2.39-5.8,4.44-8.38c2.05-2.57,4.72-4.73,8.01-6.46c3.3-1.73,7.3-2.6,12.02-2.6h33.86c2.6,0,5.4,0.46,8.41,1.37
			c3.01,0.92,5.8,2.39,8.38,4.44c2.57,2.05,4.73,4.72,6.46,8.01C2101.37,2072.36,2102.23,2076.37,2102.23,2081.08z"/>
		<path class="st0" d="M2194.86,2107.44c0,2.6-0.46,5.4-1.37,8.41c-0.91,3.01-2.39,5.8-4.44,8.38c-2.05,2.58-4.72,4.73-8.01,6.46
			c-3.3,1.73-7.3,2.6-12.02,2.6h-33.86c-2.6,0-5.4-0.46-8.41-1.37c-3.01-0.91-5.8-2.39-8.38-4.44c-2.58-2.05-4.73-4.72-6.46-8.01
			c-1.73-3.3-2.6-7.3-2.6-12.02c0-2.6,0.46-5.42,1.37-8.45c0.91-3.03,2.39-5.84,4.44-8.41c2.04-2.57,4.72-4.73,8.01-6.46
			c3.3-1.73,7.3-2.6,12.02-2.6h33.86v17.91h-33.86c-2.55,0-4.52,0.78-5.92,2.35c-1.4,1.57-2.09,3.5-2.09,5.81
			c0,2.45,0.81,4.37,2.42,5.74c1.61,1.37,3.53,2.06,5.74,2.06h33.72c2.55,0,4.52-0.77,5.92-2.31c1.4-1.54,2.09-3.46,2.09-5.78
			v-26.21c0-2.45-0.76-4.4-2.27-5.85c-1.52-1.44-3.43-2.17-5.74-2.17h-41.22v-17.83h41.22c2.6,0,5.4,0.46,8.41,1.37
			c3.01,0.92,5.8,2.39,8.38,4.44c2.57,2.05,4.73,4.72,6.46,8.01c1.73,3.3,2.6,7.3,2.6,12.02V2107.44z"/>
		<path class="st1" d="M2226.56,2123.83c0,1.3-0.25,2.52-0.76,3.65c-0.5,1.13-1.18,2.12-2.02,2.96c-0.84,0.84-1.83,1.5-2.96,1.99
			c-1.13,0.48-2.32,0.72-3.57,0.72c-1.3,0-2.52-0.24-3.65-0.72c-1.13-0.48-2.12-1.14-2.96-1.99c-0.84-0.84-1.5-1.83-1.99-2.96
			c-0.48-1.13-0.72-2.35-0.72-3.65c0-1.25,0.24-2.44,0.72-3.57c0.48-1.13,1.14-2.12,1.99-2.96c0.84-0.84,1.83-1.52,2.96-2.02
			c1.13-0.5,2.35-0.76,3.65-0.76c1.25,0,2.44,0.25,3.57,0.76c1.13,0.51,2.12,1.18,2.96,2.02c0.84,0.84,1.52,1.83,2.02,2.96
			C2226.31,2121.38,2226.56,2122.57,2226.56,2123.83z"/>
		<path class="st1" d="M2316.81,2133.28h-50.9c-2.6,0-5.44-0.46-8.52-1.37c-3.08-0.91-5.93-2.42-8.56-4.51
			c-2.62-2.09-4.81-4.81-6.57-8.16c-1.76-3.34-2.64-7.45-2.64-12.31v-25.41c0-1.78,0.2-3.66,0.61-5.63
			c0.41-1.97,1.05-3.93,1.91-5.88c0.87-1.95,1.99-3.81,3.36-5.6c1.37-1.78,3.03-3.34,4.98-4.69c1.95-1.35,4.2-2.43,6.75-3.25
			c2.55-0.82,5.44-1.23,8.66-1.23h50.9v18.77h-50.9c-2.46,0-4.32,0.63-5.6,1.88c-1.28,1.25-1.91,3.18-1.91,5.78v25.27
			c0,2.46,0.65,4.33,1.95,5.63s3.2,1.95,5.7,1.95h50.75V2133.28z"/>
		<path class="st1" d="M2416.66,2106.93c0,3.23-0.41,6.13-1.23,8.7c-0.82,2.58-1.9,4.84-3.25,6.79c-1.35,1.95-2.91,3.61-4.69,4.98
			c-1.78,1.37-3.65,2.49-5.6,3.36c-1.95,0.87-3.92,1.5-5.92,1.91c-2,0.41-3.89,0.61-5.67,0.61h-33.86c-2.6,0-5.44-0.46-8.52-1.37
			c-3.08-0.91-5.93-2.42-8.56-4.51c-2.62-2.09-4.81-4.81-6.57-8.16c-1.76-3.34-2.64-7.45-2.64-12.31v-25.41
			c0-4.81,0.88-8.89,2.64-12.24c1.76-3.35,3.95-6.07,6.57-8.16c2.62-2.09,5.47-3.6,8.56-4.51c3.08-0.91,5.92-1.37,8.52-1.37h33.86
			c4.81,0,8.9,0.87,12.27,2.6c3.37,1.73,6.09,3.91,8.16,6.53c2.07,2.62,3.57,5.48,4.51,8.56c0.94,3.08,1.41,5.95,1.41,8.59V2106.93z
			 M2397.88,2081.66c0-2.6-0.65-4.52-1.95-5.78c-1.3-1.25-3.18-1.88-5.63-1.88h-33.72c-2.5,0-4.4,0.64-5.7,1.91
			c-1.3,1.28-1.95,3.14-1.95,5.6v25.41c0,2.46,0.65,4.33,1.95,5.63s3.2,1.95,5.7,1.95h33.72c2.55,0,4.45-0.65,5.7-1.95
			c1.25-1.3,1.88-3.18,1.88-5.63V2081.66z"/>
		<path class="st1" d="M2502.28,2133.28h-18.77v-51.77c0-2.46-0.65-4.32-1.95-5.6c-1.3-1.27-3.22-1.91-5.78-1.91h-24.4v59.27h-18.77
			v-68.73c0-1.3,0.24-2.51,0.72-3.65c0.48-1.13,1.16-2.12,2.02-2.96c0.87-0.84,1.88-1.5,3.03-1.99c1.16-0.48,2.38-0.72,3.68-0.72
			h33.86c2.6,0,5.39,0.46,8.38,1.37c2.98,0.92,5.82,2.38,8.52,4.4v-5.78h25.41c1.78,0,3.66,0.21,5.63,0.61
			c1.97,0.41,3.93,1.05,5.88,1.91c1.95,0.87,3.81,1.99,5.6,3.36c1.78,1.37,3.34,3.03,4.69,4.98c1.35,1.95,2.43,4.2,3.25,6.75
			c0.82,2.55,1.23,5.44,1.23,8.66v51.77h-18.77v-51.77c0-2.46-0.61-4.32-1.84-5.6c-1.23-1.27-3.12-1.91-5.67-1.91h-16.89
			c0.62,2.31,0.94,4.81,0.94,7.51V2133.28z"/>
	</g>
</g>
<g id="Layer_11">
</g>
<g id="Layer_5">
	<path class="st1" d="M1474.63,779.36c-163.46,13.24-308.53,120.42-377.2,276.01l-33.87-9.37l10.6,40.87l10.6,40.87l30.09-29.61
		l30.09-29.61l-26.59-7.36c63.57-145.85,208.66-241.79,368.48-240.82c174.33,1.05,329.32,117.17,380.02,285.42
		c26.27,0,52.55,0,78.82,0C1877.89,896.75,1679.59,762.76,1474.63,779.36z"/>
	<g>
	</g>
	<g>
	</g>
	<g>
	</g>
	<g>
	</g>
	<g>
	</g>
	<g>
	</g>
	<g>
	</g>
	<g>
	</g>
	<g>
	</g>
	<g>
	</g>
	<g>
	</g>
</g>
</svg>
