<?xml version="1.0" encoding="utf-8"?>
<!-- Generator: Adobe Illustrator 24.3.0, SVG Export Plug-In . SVG Version: 6.00 Build 0)  -->
<svg version="1.1" xmlns="http://www.w3.org/2000/svg" xmlns:xlink="http://www.w3.org/1999/xlink" x="0px" y="0px"
	 viewBox="0 0 3000 3000" style="enable-background:new 0 0 3000 3000;" xml:space="preserve">
<style type="text/css">
	.st0{fill:#FFCE00;}
	.st1{fill:#008CFF;}
</style>
<g id="Layer_2">
	<rect width="3000" height="3000"/>
</g>
<g id="Layer_1">
	<path class="st0" d="M1825.28,1317.9h-61.47c-2.77-22.25-17.84-124.07-107.94-194.91c-59.25-46.58-121.62-56.7-149.68-59.47
		c-0.1-15.21-0.2-30.41-0.29-45.62c-0.01-0.27-0.01-0.56-0.01-0.83c23.85,1.37,47.51,5.33,70.58,11.69
		c0.08,0.02,0.17,0.04,0.26,0.07c0.21,0.06,0.47,0.13,0.78,0.21c0.12,0.03,0.24,0.07,0.37,0.11c0.24,0.07,0.51,0.14,0.8,0.22
		c0.26,0.08,0.56,0.16,0.87,0.24c0.19,0.07,0.4,0.13,0.61,0.19c0.15,0.05,0.3,0.09,0.46,0.14c33.39,9.63,65.49,24.32,95.05,43.49
		c0.15,0.1,0.3,0.19,0.44,0.3c0.5,0.31,0.98,0.64,1.47,0.97c15.3,10.29,35.01,25.28,55.13,45.79c0.51,0.52,1.01,1.04,1.51,1.56
		c0.05,0.04,0.09,0.09,0.13,0.14c3.31,3.41,6.61,6.97,9.91,10.69c0.09,0.1,0.18,0.2,0.26,0.3c6.96,7.84,13.86,16.37,20.53,25.61
		c0.1,0.13,0.19,0.26,0.28,0.39c27.17,38.14,41.44,77.62,45.55,89.97c0.07,0.19,0.14,0.4,0.19,0.59c0.13,0.38,0.23,0.73,0.34,1.04
		c0.05,0.16,0.1,0.3,0.15,0.46c0.15,0.45,0.26,0.83,0.35,1.11c0.51,1.62,1,3.24,1.47,4.84c0.5,1.7,0.97,3.37,1.44,5.05
		c0.33,1.2,0.66,2.4,0.98,3.59c0.01,0.04,0.02,0.07,0.03,0.11c0.62,2.34,1.21,4.65,1.76,6.94c0.27,1.16,0.55,2.32,0.82,3.46
		c2.91,12.63,4.83,24.36,6.11,34.88c0.12,0.96,0.22,1.9,0.33,2.84C1825.03,1315.37,1825.15,1316.65,1825.28,1317.9z"/>
	<path class="st0" d="M1360.26,1717.45c1.02,7.39,1.88,56.96,1.75,61.52c18.41,0.08,36.07-0.16,54.47-0.07
		c-0.29-12.97-0.58-68.91-0.87-81.88c-0.16-4.89-0.73-12.21-2.81-20.8c-5.92-24.46-19.5-40.65-27.55-50.04
		c-8.86-10.33-16.92-16.95-27.55-25.67c-12.16-9.99-18.28-13.4-31.67-24.55c-9.68-8.06-17.11-15.12-21.74-19.68
		c-26.3-24.47-42.66-48.78-52.47-65.97c-18.09-31.68-25.61-59.59-31.48-81.96c-6.2-23.65-9.32-44.03-10.99-58.97
		c-18.74,0.25-37.48,0.5-56.22,0.75c0.36,49.03,10.5,87.56,18.99,112.19c11.09,32.19,30.88,89.64,81.21,131.93
		c24.81,20.85,47.64,44.06,73.21,63.97c5.43,4.23,17.5,13.45,25.24,29.49C1357.8,1700.2,1359.77,1713.85,1360.26,1717.45z"/>
	<path class="st0" d="M1722.09,1596.26c12.58-12.42,29.53-31.03,46.98-56.97c16.68-25.25,38.08-64.78,48.98-116.94
		c5.67-27.16,7.23-51.66,7-71.96c-20.03,0.04-40.06,0.08-60.1,0.12c-1,43.97-11.41,77.65-19.49,98.2
		c-6.72,17.1-26.07,64.81-70.84,104.95c-18.87,16.92-33.12,24.3-64.97,54.85c-17.91,17.18-28.26,29.09-35.98,46.23
		c-8.68,19.24-10.69,37.61-11.49,45.48c-1.47,14.37-1.88,69.8-0.84,78.69c18.41-0.25,40.16,0.25,58.57,0
		c-1.31-8.06-4.61-65.61,0.5-80.69c4.96-14.65,13.37-23.75,23.74-34.73c13.21-13.99,20.38-17.39,40.23-33.48
		C1684.35,1629.99,1704.33,1613.8,1722.09,1596.26z"/>
	<path class="st0" d="M1538.18,1401.11c-11.97,14.27-22.93,25.04-30.73,32.23c-0.25,100.83-0.77,244.63-1.02,345.45
		c9.12-0.12,18.62,0.12,27.74,0c0.19-96.64,0.27-236.63,0.46-333.27c5.9-3.31,41.04-29.67,55.54-76.15
		c2.56-8.22,7.74-46.48-16.49-80.46c-22.22-31.14-64.07-52.4-107.95-41.98c-42.88,10.19-70.64,46.51-76.96,82.46
		c-6.84,38.87,12.73,69.64,17.87,77.71c12.61,19.82,28.34,31.49,37.86,37.48c0.25,96.7-2.77,237.54-2.52,334.25
		c8.87,0.25,21.11-0.25,29.99,0c0.62-100.45,1.14-244.29,1.77-344.74c-10.3-7.5-25.4-20.23-38.98-39.73
		c-10.2-14.64-17.88-25.68-19.49-41.98c-3.33-33.7,22.48-57.85,23.99-59.22c2.78-2.52,27.68-24.33,62.22-17.99
		c28.06,5.15,48.46,26.31,56.22,49.48c0.92,2.76,8.94,27.88-2.25,52.47C1552.07,1384.47,1547.4,1390.12,1538.18,1401.11z"/>
	<path class="st0" d="M1608.27,1804.07h-241.38c-10.14,0-18.37,8.22-18.37,18.37v0c0,10.14,8.22,18.37,18.37,18.37h241.38
		c10.14,0,18.37-8.22,18.37-18.37v0C1626.63,1812.3,1618.41,1804.07,1608.27,1804.07z"/>
	<path class="st0" d="M1604.52,1856.55h-227.14c-8.49,0-15.37,6.88-15.37,15.37c0,8.49,6.88,15.37,15.37,15.37h227.14
		c8.49,0,15.37-6.88,15.37-15.37C1619.89,1863.43,1613.01,1856.55,1604.52,1856.55z"/>
	<path class="st0" d="M1569.66,1909.02h-162.42c-11.46,0-21.82,4.65-29.33,12.15c-7.5,7.51-12.15,17.88-12.15,29.33
		c0,22.91,18.57,41.48,41.48,41.48h12.67c5.15,36.35,37.73,62.61,72.54,59.84c31.11-2.47,57.23-27.59,61.62-59.84h15.6
		c11.46,0,21.83-4.65,29.33-12.15c7.5-7.51,12.15-17.88,12.15-29.34C1611.14,1927.6,1592.57,1909.02,1569.66,1909.02z
		 M1575.48,1959.31c-2.89,2.89-6.9,4.68-11.31,4.68h-152.92c-8.83,0-16-7.16-16-16c0-4.42,1.79-8.41,4.68-11.3
		c2.9-2.89,6.9-4.68,11.31-4.68h152.92c8.83,0,16,7.16,16,15.99C1580.16,1952.42,1578.37,1956.42,1575.48,1959.31z"/>
	<path class="st0" d="M1473.2,1063.53c-24.27,2.88-107.66,15.79-177.15,87.2c-64.2,65.98-77.6,141.86-80.96,167.18h-60.23
		c1.44-13.26,3.99-29.4,8.6-47.43c0.31-1.22,0.63-2.47,0.97-3.74c0.04-0.15,0.08-0.29,0.13-0.45c0.19-0.73,0.39-1.47,0.6-2.21
		c0.58-2.14,1.22-4.35,1.9-6.63c0.25-0.86,0.52-1.73,0.79-2.6c0.26-0.87,0.54-1.74,0.82-2.61c0.42-1.32,0.84-2.64,1.28-3.97
		c0.44-1.33,0.9-2.67,1.36-4.01h-0.01c3.92-11.37,8.94-23.97,15.45-37.29h0.01c0.38-0.78,0.77-1.57,1.15-2.35
		c0.39-0.79,0.8-1.59,1.2-2.38c0.43-0.86,0.88-1.72,1.33-2.58c0.87-1.67,1.75-3.32,2.63-4.95c0.44-0.82,0.89-1.64,1.34-2.45
		c27.15-49.25,62.41-83.35,91.98-105.8c0.22-0.18,0.44-0.35,0.66-0.51c0.73-0.56,1.45-1.1,2.17-1.64
		c15.17-11.27,28.69-19.44,38.62-24.99c0.01,0,0.01-0.01,0.02-0.01c0.02-0.01,0.03-0.02,0.05-0.03c0.46-0.24,0.92-0.51,1.36-0.74
		c-0.05,0.02-0.11,0.04-0.16,0.06c9.51-5.47,19.17-10.37,28.96-14.74c0.13-0.06,0.25-0.12,0.38-0.17c0.01,0,0.02-0.01,0.03-0.01
		c36.89-16.4,75.5-25.08,114.11-26.8c0,0.33,0.01,0.66,0.01,0.99C1472.81,1033.09,1473.01,1048.31,1473.2,1063.53z"/>
	<path class="st0" d="M1327.86,1059.31c-75.75,44.01-123.54,112.04-141.09,147.64c1.62-3.31,3.3-6.65,5.09-9.99
		C1234.03,1117.46,1297.58,1076.21,1327.86,1059.31z"/>
	<path class="st0" d="M1734.36,1122.18c21.13,21.84,42.54,49.79,59.57,84.77C1783.65,1186.61,1765.05,1154.35,1734.36,1122.18z"/>
	<path class="st0" d="M1286.4,1086.44c-30.85,23.62-65.54,57.99-91.98,105.8C1221.57,1142.99,1256.82,1108.88,1286.4,1086.44z"/>
	<path class="st0" d="M1472.6,1016.86c0,0.33,0.01,0.66,0.01,0.99c-33.98,1.59-73.15,8.49-114.12,25.81
		C1395.38,1027.27,1433.99,1018.59,1472.6,1016.86z"/>
	<path class="st0" d="M1505.89,1017.08c23.85,1.37,47.51,5.33,70.58,11.69c-13.17-3.5-38.14-9.26-70.57-10.86
		C1505.89,1017.63,1505.89,1017.35,1505.89,1017.08z"/>
	<path class="st0" d="M1744.26,1132.87c-62.24-69.32-143.6-96.95-163.63-102.92c33.39,9.63,65.49,24.32,95.05,43.49
		c0.15,0.1,0.3,0.19,0.44,0.3c0.5,0.31,0.98,0.64,1.47,0.97c15.3,10.29,35.01,25.28,55.13,45.79c0.51,0.52,1.01,1.04,1.51,1.56
		c0.05,0.04,0.09,0.09,0.13,0.14C1737.66,1125.6,1740.96,1129.16,1744.26,1132.87z"/>
</g>
<g id="Layer_3">
	<path class="st1" d="M2066.72,1642.84c-0.08-0.1-0.15-0.2-0.22-0.3c-34.22-52.38-68.44-104.76-102.65-157.13
		c-0.78-1.19-0.87-2.69-0.24-3.96c6.42-13.03,14.16-33.22,15.23-58.43c0.85-19.94-2.8-35.56-8.6-55.44
		c-6.87-23.56-17.43-55.31-33.74-92.98h-85.67c13.75,43.02,32.42,125.1,9.11,222.03c-39.36,163.7-168.59,245.42-199.14,263.41
		c-1.22,0.72-1.97,2.03-1.97,3.44c-0.24,80.89-0.47,161.78-0.71,242.67c0.01,0.79,0.14,2.96,1.67,5.02
		c1.74,2.33,4.19,3.05,5.28,3.27c0.27,0.05,0.53,0.08,0.8,0.08c14.14-0.08,28.29-0.16,42.43-0.24c1.69-0.01,5.38-0.27,9.08-2.63
		c3.88-2.48,5.6-5.89,6.45-7.65c2.71-5.58,2.43-10.89,2.39-12.31c-0.45-15.12,12.84-34.23,13.98-35.85
		c12.68-17.92,32.29-23.82,38-25.45c6.95-1.99,16.32-3.54,47.32,1.08c41.99,6.26,43.61,11.92,67.75,12.91
		c17.11,0.7,38.76,1.29,58.79-12.19c5.52-3.71,19.11-13.14,24.74-30.47c4.89-15.08,1.52-29.28,1.08-31.07
		c-2.74-10.99-7.57-15.07-9.56-29.16c-1.06-7.5-1.59-11.26-0.24-15.3c3.94-11.78,19.73-23.03,21.99-24.62
		c1.73-1.22,3.46-2.32,4.3-4.54c2.31-6.08-4.53-13.85-8.13-17.92c-2.11-2.4-5.29-5.57-9.79-8.69c-2.91-2.02-1.99-6.53,1.48-7.24
		c0.04-0.01,0.09-0.02,0.13-0.03c15.14-3.08,18.67-4.31,21.15-7.53c1.89-2.44,2.3-4.91,2.87-8.25c0.66-3.92,0.29-6.75-2.15-18.28
		c0,0-1.14-5.41-3.23-17.39c-0.95-5.44-1.31-7.93,0-10.58c2.04-4.12,6.71-5.69,8.96-6.27c14.81-3.27,29.61-6.54,44.42-9.81
		c0.14-0.03,0.28-0.05,0.42-0.07c2.41-0.27,9.57-1.44,15.38-7.51c6.69-6.98,6.94-15.61,6.81-18.82
		C2072.38,1650.51,2068.37,1644.89,2066.72,1642.84z"/>
	<path class="st1" d="M1317.01,1760.03c-30.55-17.98-159.78-99.71-199.14-263.41c-23.31-96.93-4.64-179.01,9.11-222.03h-85.67
		c-16.3,37.66-26.86,69.42-33.74,92.98c-5.8,19.88-9.45,35.5-8.6,55.44c1.07,25.22,8.82,45.4,15.23,58.43
		c0.63,1.27,0.53,2.77-0.24,3.96c-34.22,52.38-68.44,104.76-102.65,157.13c-0.07,0.11-0.14,0.2-0.22,0.3
		c-1.64,2.05-5.66,7.67-5.98,15.81c-0.13,3.21,0.12,11.84,6.81,18.82c5.81,6.07,12.98,7.23,15.38,7.51
		c0.14,0.02,0.28,0.04,0.42,0.07c14.81,3.27,29.61,6.54,44.42,9.81c2.25,0.58,6.92,2.15,8.96,6.27c1.31,2.65,0.95,5.14,0,10.58
		c-2.08,11.98-3.23,17.39-3.23,17.39c-2.44,11.54-2.81,14.36-2.15,18.28c0.56,3.33,0.98,5.8,2.87,8.25
		c2.48,3.22,6.01,4.45,21.15,7.53c0.04,0.01,0.09,0.02,0.13,0.03c3.47,0.7,4.39,5.22,1.48,7.24c-4.5,3.12-7.68,6.29-9.79,8.69
		c-3.59,4.08-10.43,11.84-8.13,17.92c0.84,2.22,2.57,3.33,4.3,4.54c2.26,1.59,18.04,12.83,21.99,24.62
		c1.35,4.04,0.82,7.79-0.24,15.3c-1.99,14.09-6.81,18.17-9.56,29.16c-0.45,1.79-3.82,15.99,1.08,31.07
		c5.62,17.33,19.22,26.76,24.74,30.47c20.03,13.48,41.68,12.89,58.79,12.19c24.14-0.99,25.77-6.65,67.75-12.91
		c31-4.62,40.37-3.06,47.32-1.08c5.71,1.63,25.32,7.53,38,25.45c1.15,1.62,14.43,20.73,13.98,35.85c-0.04,1.42-0.32,6.73,2.39,12.31
		c0.86,1.76,2.57,5.17,6.45,7.65c3.7,2.36,7.39,2.62,9.08,2.63l42.43,0.24c0.27,0,0.54-0.02,0.8-0.08c1.09-0.22,3.54-0.93,5.28-3.27
		c1.54-2.06,1.66-4.23,1.67-5.02c-0.24-80.89-0.47-161.78-0.71-242.67C1318.98,1762.05,1318.23,1760.74,1317.01,1760.03z"/>
	<path class="st0" d="M1700.85,1256.18c-31.87-88.43-114.98-148.17-207.65-149.68c-78.98-1.29-152.09,39.94-193.51,105.69
		l-29.88-13.42l4.63,45.48l4.63,45.48l37.07-26.75l37.07-26.75l-25.74-11.56c38.04-58.03,104.26-92.99,173.96-88.93
		c79.31,4.62,148.83,58.93,173.91,136.43c7.1,8.2,18.75,8.15,24.24,2.25C1703.64,1270.07,1704.28,1262.59,1700.85,1256.18z"/>
	<path class="st0" d="M1393.94,1503.9l-12.34-44.02l-21.83,22.34c-20.84-20.29-44.94-51.15-57.72-93.85
		c-9.14-30.57-9.68-57.81-8.25-77.21c-0.39-0.8-3.83-7.5-11.49-9c-6.16-1.2-12.61,1.44-16.49,6.75
		c-2.16,21.61-5.27,81.93,31.36,142.8c13.11,21.78,28.26,38.57,42.32,51.26l-21.8,22.31l44.29,11.32l44.29,11.32L1393.94,1503.9z"/>
	<path class="st0" d="M1742.96,1364.07l-22.86-39.59l-22.86-39.59l-22.86,39.59l-22.86,39.59h31.3
		c-1.74,11.48-4.61,23.87-9.21,36.78c-22.27,62.55-69.38,95.08-85.96,105.45c-0.39,0.73-4.31,8.32-1,13.99
		c3.6,6.16,14.89,8.64,24.99,2c17.18-10.61,51.54-35.11,75.96-79.96c15.22-27.95,21.93-55.28,24.52-78.26L1742.96,1364.07z"/>
</g>
<g id="Layer_9">
</g>
<g id="Layer_11">
</g>
<g id="Layer_5">
	<path class="st1" d="M1463.14,890.6c-163.46,13.24-308.53,120.42-377.2,276.01l-33.87-9.37l10.6,40.87l10.6,40.87l30.09-29.61
		l30.09-29.61l-26.59-7.36c63.57-145.85,208.66-241.79,368.48-240.82c174.33,1.05,329.32,117.17,380.02,285.42
		c26.27,0,52.55,0,78.82,0C1866.4,1007.99,1668.1,874,1463.14,890.6z"/>
</g>
</svg>
